<?xml version="1.0" standalone="no"?>
<!DOCTYPE svg PUBLIC "-//W3C//DTD SVG 20010904//EN"
 "http://www.w3.org/TR/2001/REC-SVG-20010904/DTD/svg10.dtd">
<svg version="1.0" xmlns="http://www.w3.org/2000/svg"
 width="512.000000pt" height="512.000000pt" viewBox="0 0 512.000000 512.000000"
 preserveAspectRatio="xMidYMid meet">
<metadata>
Created by potrace 1.14, written by Peter Selinger 2001-2017
</metadata>
<g transform="translate(0.000000,512.000000) scale(0.100000,-0.100000)"
fill="#000000" stroke="none">
<path d="M1745 3873 c-57 -12 -134 -39 -167 -60 -21 -13 -39 -23 -41 -23 -4 0
-496 -287 -547 -319 -13 -9 -124 -74 -505 -299 -60 -36 -186 -110 -280 -164
-94 -55 -178 -107 -187 -115 -16 -14 -18 -38 -18 -209 l0 -193 82 -58 c203
-143 211 -158 233 -473 4 -47 9 -110 11 -139 24 -291 250 -535 535 -577 67 -9
609 -5 671 6 292 51 542 235 670 492 66 133 92 245 102 438 5 95 21 142 68
195 51 58 101 80 188 80 85 0 133 -20 186 -77 49 -51 67 -95 70 -173 8 -174
18 -236 50 -333 82 -246 245 -430 486 -548 143 -71 247 -85 603 -85 256 0 299
2 367 20 188 49 324 160 411 336 39 80 55 137 62 227 3 34 7 86 10 113 3 28 7
88 11 135 11 178 42 230 198 344 l106 77 0 194 0 194 -32 24 c-18 14 -64 42
-103 64 -61 35 -347 203 -430 254 -16 10 -52 31 -80 47 -27 15 -117 68 -200
117 -82 48 -186 109 -230 135 -44 26 -180 106 -302 177 -314 185 -282 176
-659 181 l-311 4 -27 -33 c-25 -29 -27 -38 -22 -81 12 -96 68 -172 154 -211
42 -18 69 -20 253 -22 l206 -1 139 -81 c76 -44 155 -90 174 -101 19 -11 161
-93 315 -183 318 -185 343 -199 405 -233 99 -54 126 -51 -477 -50 -618 0 -630
-1 -761 -62 -42 -20 -90 -40 -107 -45 -33 -10 -126 -13 -165 -4 -173 37 -222
43 -320 40 -108 -4 -153 -9 -205 -25 -70 -22 -188 -27 -240 -11 -16 5 -64 25
-105 44 -134 61 -123 60 -737 62 -310 1 -565 4 -568 7 -3 3 21 19 52 36 77 42
90 50 602 347 l444 259 207 1 c204 2 209 2 264 29 38 19 66 42 89 74 40 56 46
70 53 134 5 44 3 51 -25 78 l-30 31 -288 -2 c-158 -1 -297 -4 -308 -6z"/>
</g>
</svg>
